<svg xmlns="http://www.w3.org/2000/svg" xmlns:xlink="http://www.w3.org/1999/xlink" width="100" zoomAndPan="magnify" viewBox="0 0 75 60" height="80" preserveAspectRatio="xMidYMid meet" version="1.0"><rect x="-7.5" width="90" fill="#ffffff" y="-6" height="72" fill-opacity="1"/><rect x="-7.5" width="90" fill="#ffffff" y="-6" height="72" fill-opacity="1"/><rect x="-7.5" width="90" fill="#ffffff" y="-6" height="72" fill-opacity="1"/><path fill="#ffffff" d="M 73.273438 26.714844 C 69.046875 25.230469 64.597656 24.789062 60.273438 25.34375 C 60.585938 22.910156 60.578125 20.4375 60.257812 18.003906 C 60.09375 16.738281 59.84375 15.488281 59.507812 14.261719 C 59.273438 13.386719 59.09375 11.78125 58.015625 11.574219 C 57.113281 11.398438 55.765625 11.964844 54.902344 12.21875 C 53.785156 12.546875 52.6875 12.941406 51.621094 13.402344 C 49.503906 14.320312 47.5 15.496094 45.664062 16.894531 C 44.753906 14.710938 43.570312 12.644531 42.148438 10.753906 C 41.433594 9.796875 40.65625 8.890625 39.824219 8.035156 C 39.207031 7.398438 38.195312 6.019531 37.230469 6.019531 C 36.277344 6.019531 35.25 7.40625 34.636719 8.035156 C 33.847656 8.847656 33.109375 9.707031 32.421875 10.609375 C 30.953125 12.539062 29.730469 14.65625 28.796875 16.894531 C 27.011719 15.53125 25.0625 14.382812 23.007812 13.476562 C 21.945312 13.007812 20.851562 12.605469 19.738281 12.269531 C 18.824219 11.996094 17.398438 11.386719 16.445312 11.574219 C 15.410156 11.773438 15.242188 13.226562 15.007812 14.066406 C 14.664062 15.292969 14.402344 16.542969 14.230469 17.804688 C 13.882812 20.300781 13.871094 22.84375 14.1875 25.34375 C 11.890625 25.050781 9.558594 25.039062 7.257812 25.308594 C 6.128906 25.441406 5.007812 25.640625 3.90625 25.910156 C 3.007812 26.128906 1.550781 26.308594 0.835938 26.921875 C 0.128906 27.53125 0.527344 28.527344 0.707031 29.296875 C 0.933594 30.242188 1.203125 31.175781 1.523438 32.09375 C 2.117188 33.8125 2.875 35.46875 3.785156 37.042969 C 7.742188 43.871094 14.511719 48.808594 22.21875 50.488281 C 27.1875 51.570312 32.410156 51.265625 37.230469 49.648438 C 50.265625 54.019531 64.933594 48.128906 71.292969 35.921875 C 72.082031 34.402344 72.734375 32.8125 73.242188 31.171875 C 73.566406 30.125 74.832031 27.261719 73.273438 26.714844 Z M 41.707031 48.410156 C 40.960938 48.277344 40.21875 48.109375 39.476562 47.910156 C 43.4375 43.980469 46.179688 38.902344 47.289062 33.425781 C 53.976562 27.851562 63.234375 26.015625 71.550781 28.578125 C 68.5 41.933594 55.199219 50.804688 41.707031 48.410156 Z M 32.753906 48.410156 C 19.261719 50.804688 5.960938 41.933594 2.910156 28.578125 C 11.226562 26.015625 20.484375 27.851562 27.175781 33.429688 C 28.28125 38.886719 31.015625 44.003906 34.984375 47.910156 C 34.246094 48.109375 33.5 48.277344 32.753906 48.410156 Z M 17.417969 14.046875 C 21.316406 14.9375 24.910156 16.707031 27.957031 19.167969 C 26.820312 22.71875 26.398438 26.460938 26.710938 30.175781 C 23.65625 28.046875 20.210938 26.542969 16.570312 25.753906 C 15.96875 21.878906 16.238281 17.878906 17.417969 14.046875 Z M 30.65625 18.441406 C 32.066406 14.785156 34.296875 11.453125 37.230469 8.726562 C 42.53125 13.660156 45.609375 20.75 45.550781 28.007812 C 45.492188 35.121094 42.433594 42.042969 37.230469 46.882812 C 29.53125 39.714844 26.863281 28.273438 30.65625 18.441406 Z M 57.046875 14.046875 C 58.222656 17.878906 58.492188 21.878906 57.890625 25.753906 C 54.25 26.542969 50.804688 28.046875 47.75 30.175781 C 48.0625 26.460938 47.640625 22.71875 46.503906 19.167969 C 49.550781 16.707031 53.144531 14.9375 57.046875 14.046875 Z M 57.046875 14.046875 " fill-opacity="1" fill-rule="nonzero"/></svg>